<?xml version="1.0" encoding="utf-8"?>
<!-- Generator: Adobe Illustrator 23.0.3, SVG Export Plug-In . SVG Version: 6.00 Build 0)  -->
<svg version="1.1" id="main" xmlns="http://www.w3.org/2000/svg" xmlns:xlink="http://www.w3.org/1999/xlink" x="0px" y="0px"
	 viewBox="0 0 612 792" style="enable-background:new 0 0 612 792;" xml:space="preserve">
<style type="text/css">
	.st0{fill:none;}
	.st1{font-family:'OpenSans-Regular';}
	.st2{font-size:15px;}
	.st3{font-size:10px;}
	.st4{fill:none;stroke:#231F20;stroke-miterlimit:10;}
	.st5{fill:none;stroke:#000000;stroke-width:2;stroke-miterlimit:10;}
	.st6{fill:none;stroke:#000000;stroke-width:1.9769;stroke-miterlimit:10;}
	.st7{fill:none;stroke:#000000;stroke-width:1.9765;stroke-miterlimit:10;}
	.st8{fill:none;stroke:#000000;stroke-width:2;stroke-miterlimit:10;stroke-dasharray:11.9344,11.9344;}
	.st9{fill:none;stroke:#000000;stroke-width:2.0074;stroke-miterlimit:10;}
	.st10{fill:none;stroke:#000000;stroke-width:2.0328;stroke-miterlimit:10;}
	.st11{fill:none;stroke:#000000;stroke-width:2.0411;stroke-miterlimit:10;}
	.st12{fill:none;stroke:#000000;stroke-width:2.0175;stroke-miterlimit:10;}
</style>
<rect x="362.6" y="41.9" class="st0" width="226.6" height="53.3"/>
<text transform="matrix(1 0 0 1 436.4611 53.3211)" class="st1 st2">Office of the Registrar</text>
<text transform="matrix(1 0 0 1 400.9611 71.3211)" class="st1 st2">Transient Permission Form</text>
<rect x="82.7" y="143.6" class="st0" width="130" height="26.7"/>
<text transform="matrix(1 0 0 1 134.8491 151.1829)" class="st1 st3">CWID</text>
<rect x="272.7" y="143.6" class="st0" width="130" height="26.7"/>
<text transform="matrix(1 0 0 1 312.8398 151.1829)" class="st1 st3">Last Name</text>
<rect x="405.7" y="143.6" class="st0" width="130" height="26.7"/>
<text transform="matrix(1 0 0 1 445.3296 151.1829)" class="st1 st3">First Name</text>
<rect x="502.7" y="143.6" class="st0" width="130" height="26.7"/>
<text transform="matrix(1 0 0 1 561.7632 151.1829)" class="st1 st3">MI</text>
<rect x="58.8" y="224.6" class="st0" width="174.7" height="26.7"/>
<text transform="matrix(1 0 0 1 64.6694 232.1824)" class="st1 st3">City and State of College/University</text>
<rect x="330.7" y="224.6" class="st0" width="130" height="26.7"/>
<text transform="matrix(1 0 0 1 383.4082 232.1829)" class="st1 st3">Term</text>
<rect x="470.7" y="224.6" class="st0" width="130" height="26.7"/>
<text transform="matrix(1 0 0 1 525.2441 232.1829)" class="st1 st3">Year</text>
<line class="st4" x1="25" y1="139.8" x2="261.6" y2="139.8"/>
<line class="st4" x1="272.7" y1="139.8" x2="402.7" y2="139.8"/>
<line class="st4" x1="412.5" y1="139.8" x2="535.7" y2="139.8"/>
<line class="st4" x1="550.9" y1="139.8" x2="583.9" y2="139.8"/>
<line class="st4" x1="222.6" y1="180.1" x2="586.8" y2="180.1"/>
<line class="st4" x1="25" y1="220.5" x2="266.5" y2="220.5"/>
<line class="st4" x1="315.7" y1="220.5" x2="470.7" y2="220.5"/>
<line class="st4" x1="494.5" y1="220.5" x2="584.6" y2="220.5"/>
<rect x="19.7" y="174" class="st0" width="195.9" height="26.7"/>
<text transform="matrix(1 0 0 1 22.9269 181.6003)" class="st1 st3">I request to take the following courses at</text>
<rect x="304.6" y="185.3" class="st0" width="195.9" height="26.7"/>
<text transform="matrix(1 0 0 1 311.697 192.9276)" class="st1 st3">Name of accreddited college/university</text>
<rect x="22.1" y="266.5" class="st5" width="569.9" height="273.5"/>
<rect x="396.9" y="266.5" class="st6" width="130.5" height="61.2"/>
<rect x="527.5" y="266.5" class="st7" width="64.4" height="60.9"/>
<rect x="401.3" y="280.5" class="st0" width="124.5" height="33.2"/>
<text transform="matrix(1 0 0 1 404.056 288.1501)" class="st1 st3">Equivalent Citadel Course </text>
<text transform="matrix(1 0 0 1 435.856 300.1501)" class="st1 st3">Information</text>
<text transform="matrix(1 0 0 1 402.556 312.1501)" class="st1 st3">Completed by the Student</text>
<rect x="528.6" y="280.5" class="st0" width="63.4" height="33.2"/>
<text transform="matrix(1 0 0 1 534.6605 288.1501)" class="st1 st3">Completed</text>
<text transform="matrix(1 0 0 1 540.7605 300.1501)" class="st1 st3">by Dept.</text>
<text transform="matrix(1 0 0 1 547.9605 312.1501)" class="st1 st3">Head</text>
<rect x="102.4" y="287" class="st0" width="216" height="26.7"/>
<text transform="matrix(1 0 0 1 119.8054 294.6482)" class="st1 st3">Course Information from other College</text>
<text transform="matrix(1 0 0 1 149.4054 306.6482)" class="st1 st3">Completed by the Student</text>
<rect x="27.7" y="575.2" class="st0" width="561.5" height="50.6"/>
<text transform="matrix(1 0 0 1 27.668 582.8403)" class="st1 st3">Your signature acknowledges that you understand the guidelines and requirements listed on page two of this document.</text>
<text transform="matrix(1 0 0 1 27.668 594.8403)" class="st1 st3">Your signature also acknowledges that The Citadel will not accept transfer credits earned while a student is on academic </text>
<text transform="matrix(1 0 0 1 27.668 606.8403)" class="st1 st3">or conduct discharge or while conduct charges are pending.</text>
<rect x="92.3" y="664.7" class="st0" width="174.7" height="26.7"/>
<text transform="matrix(1 0 0 1 138.1849 672.3279)" class="st1 st3">Student signature</text>
<line class="st4" x1="58.4" y1="660.6" x2="300" y2="660.6"/>
<rect x="396.3" y="664.7" class="st0" width="174.7" height="26.7"/>
<text transform="matrix(1 0 0 1 472.6878 672.3279)" class="st1 st3">Date</text>
<line class="st4" x1="421.3" y1="660.6" x2="552.8" y2="660.6"/>
<rect x="28.3" y="763.7" class="st0" width="174.7" height="26.7"/>
<text transform="matrix(1 0 0 1 71.1942 771.3279)" class="st1 st3">Registrar Signature</text>
<line class="st4" x1="28.3" y1="759.6" x2="226.7" y2="759.6"/>
<rect x="210.4" y="763.7" class="st0" width="109.7" height="26.7"/>
<text transform="matrix(1 0 0 1 254.2283 771.3284)" class="st1 st3">Date</text>
<line class="st4" x1="236" y1="759.6" x2="293.3" y2="759.6"/>
<rect x="299.2" y="763.7" class="st0" width="79.9" height="26.7"/>
<text transform="matrix(1 0 0 1 323.9222 771.3284)" class="st1 st3">Initials</text>
<line class="st4" x1="304.8" y1="759.6" x2="373.3" y2="759.6"/>
<rect x="364.3" y="763.7" class="st0" width="111.7" height="26.7"/>
<text transform="matrix(1 0 0 1 392.1312 771.3284)" class="st1 st3">School code</text>
<line class="st4" x1="384.8" y1="759.6" x2="453.3" y2="759.6"/>
<rect x="435.3" y="763.7" class="st0" width="174.7" height="26.7"/>
<text transform="matrix(1 0 0 1 461.9564 771.3279)" class="st1 st3">Checked/added to banner</text>
<line class="st4" x1="463.6" y1="759.6" x2="590.9" y2="759.6"/>
<g>
	<g>
		<line class="st5" x1="45.9" y1="701.3" x2="51.9" y2="701.3"/>
		<line class="st8" x1="63.8" y1="701.3" x2="559.1" y2="701.3"/>
		<line class="st5" x1="565.1" y1="701.3" x2="571.1" y2="701.3"/>
	</g>
</g>
<rect x="233.3" y="709.2" class="st0" width="174.7" height="16.5"/>
<text transform="matrix(1 0 0 1 286.2199 716.7552)" class="st1 st3">Office use only</text>
<g>
	<rect id="courseidblock" x="22.1" y="327.6" class="st5" width="82.6" height="212.3"/>
	<rect x="24.3" y="339.6" class="st0" width="78.1" height="26.7"/>
	<text transform="matrix(1 0 0 1 40.5596 347.2065)" class="st1 st3">Course ID</text>
	<text transform="matrix(1 0 0 1 32.6596 359.2065)" class="st1 st3">Ex. ENGL 101</text>
	<line class="st5" x1="104.7" y1="370" x2="22.9" y2="370"/>
	<line class="st5" x1="104.7" y1="400" x2="22.9" y2="400"/>
	<line class="st5" x1="104.7" y1="430" x2="22.9" y2="430"/>
	<line class="st5" x1="104.7" y1="460" x2="22.9" y2="460"/>
	<line class="st5" x1="104.7" y1="490" x2="22.9" y2="490"/>
</g>
<g>
	<rect id="coursenameblock" x="104.7" y="327.6" class="st5" width="175.7" height="212.3"/>
	<rect x="118.3" y="339.6" class="st0" width="149" height="26.7"/>
	<text transform="matrix(1 0 0 1 161.0092 347.2065)" class="st1 st3">Course Name</text>
	<text transform="matrix(1 0 0 1 125.9092 359.2065)" class="st1 st3">Ex. Composition &amp; Literature</text>
	<line class="st5" x1="279.8" y1="370" x2="104.9" y2="370"/>
	<line class="st5" x1="279.8" y1="400" x2="104.9" y2="400"/>
	<line class="st5" x1="279.8" y1="430" x2="104.9" y2="430"/>
	<line class="st5" x1="279.8" y1="460" x2="104.9" y2="460"/>
	<line class="st5" x1="279.8" y1="490" x2="104.9" y2="490"/>
</g>
<g>
	<rect id="credithoursblock" x="279.8" y="327.6" class="st9" width="40.9" height="212.8"/>
	<rect x="284.6" y="338" class="st0" width="33.8" height="26.7"/>
	<text transform="matrix(1 0 0 1 287.4002 345.5519)" class="st1 st3">Credit</text>
	<text transform="matrix(1 0 0 1 287.3002 357.5519)" class="st1 st3">Hours</text>
	<line class="st5" x1="320.7" y1="370" x2="280.9" y2="370"/>
	<line class="st5" x1="320.7" y1="400" x2="280.9" y2="400"/>
	<line class="st5" x1="320.7" y1="430" x2="280.9" y2="430"/>
	<line class="st5" x1="320.7" y1="460" x2="280.9" y2="460"/>
	<line class="st5" x1="320.7" y1="490" x2="280.9" y2="490"/>
</g>
<g>
	<rect id="semesterquarterblock" x="320.7" y="327.6" class="st10" width="76.2" height="212.8"/>
	<rect x="327.3" y="331.5" class="st0" width="64.4" height="33.2"/>
	<text transform="matrix(1 0 0 1 331.1089 339.0539)" class="st1 st3">Semester or </text>
	<text transform="matrix(1 0 0 1 341.1089 351.0539)" class="st1 st3">Quarter </text>
	<text transform="matrix(1 0 0 1 338.5089 363.0539)" class="st1 st3">Calendar</text>
	<line class="st5" x1="395.7" y1="370" x2="320.9" y2="370"/>
	<line class="st5" x1="395.7" y1="400" x2="320.9" y2="400"/>
	<line class="st5" x1="395.7" y1="430" x2="320.9" y2="430"/>
	<line class="st5" x1="395.7" y1="460" x2="320.9" y2="460"/>
	<line class="st5" x1="395.7" y1="490" x2="320.9" y2="490"/>
</g>
<g>
	<rect id="courseidblock_1_" x="396.9" y="327.6" class="st9" width="91.2" height="212.8"/>
	<rect x="405.4" y="338" class="st0" width="71.7" height="26.7"/>
	<text transform="matrix(1 0 0 1 418.388 345.5519)" class="st1 st3">Course ID</text>
	<text transform="matrix(1 0 0 1 410.488 357.5519)" class="st1 st3">Ex. ENGL 101</text>
	<line class="st5" x1="487.5" y1="370" x2="395.7" y2="370"/>
	<line class="st5" x1="487.5" y1="400" x2="395.7" y2="400"/>
	<line class="st5" x1="487.5" y1="430" x2="395.7" y2="430"/>
	<line class="st5" x1="487.5" y1="460" x2="395.7" y2="460"/>
	<line class="st5" x1="487.5" y1="490" x2="395.7" y2="490"/>
</g>
<g>
	<rect id="credithoursblock_1_" x="487.5" y="327.6" class="st11" width="40" height="212.8"/>
	<rect x="471.4" y="339" class="st0" width="71.7" height="26.7"/>
	<text transform="matrix(1 0 0 1 493.1063 346.5519)" class="st1 st3">Credit</text>
	<text transform="matrix(1 0 0 1 493.0063 358.5519)" class="st1 st3">Hours</text>
	<line class="st5" x1="527.5" y1="370" x2="487.7" y2="370"/>
	<line class="st5" x1="527.5" y1="400" x2="487.7" y2="400"/>
	<line class="st5" x1="527.5" y1="430" x2="487.7" y2="430"/>
	<line class="st5" x1="527.5" y1="460" x2="487.7" y2="460"/>
	<line class="st5" x1="527.5" y1="490" x2="487.7" y2="490"/>
</g>
<g>
	<rect x="527.5" y="327.3" class="st12" width="64.4" height="213.1"/>
	<rect x="525.4" y="339" class="st0" width="71.7" height="26.7"/>
	<text transform="matrix(1 0 0 1 548.5906 346.5519)" class="st1 st3">Dept.</text>
	<text transform="matrix(1 0 0 1 540.2906 358.5519)" class="st1 st3">Approval</text>
	<line class="st5" x1="591.9" y1="370" x2="527.7" y2="370"/>
	<line class="st5" x1="591.9" y1="400" x2="527.7" y2="400"/>
	<line class="st5" x1="591.9" y1="430" x2="527.7" y2="430"/>
	<line class="st5" x1="591.9" y1="460" x2="527.7" y2="460"/>
	<line class="st5" x1="591.9" y1="490" x2="527.7" y2="490"/>
</g>
</svg>
